<svg width="26" height="19" viewBox="0 0 26 19" fill="none" xmlns="http://www.w3.org/2000/svg">
<path d="M22.1 6.5H21.45L17.0308 0.975812C16.7872 0.671362 16.4782 0.425591 16.1267 0.256682C15.7753 0.0877728 15.3903 4.87539e-05 15.0004 0H6.31028C5.24712 0 4.29122 0.647156 3.89634 1.63434L1.95 6.59181C0.830375 6.88187 0 7.88978 0 9.1V13.65C0 14.0091 0.290875 14.3 0.65 14.3H2.6C2.6 16.4539 4.34606 18.2 6.5 18.2C8.65394 18.2 10.4 16.4539 10.4 14.3H15.6C15.6 16.4539 17.3461 18.2 19.5 18.2C21.6539 18.2 23.4 16.4539 23.4 14.3H25.35C25.7091 14.3 26 14.0091 26 13.65V10.4C26 8.24606 24.2539 6.5 22.1 6.5ZM6.5 16.25C5.42466 16.25 4.55 15.3753 4.55 14.3C4.55 13.2247 5.42466 12.35 6.5 12.35C7.57534 12.35 8.45 13.2247 8.45 14.3C8.45 15.3753 7.57534 16.25 6.5 16.25ZM9.425 6.5H4.75028L6.31028 2.6H9.425V6.5ZM11.375 6.5V2.6H15.0004L18.1204 6.5H11.375ZM19.5 16.25C18.4247 16.25 17.55 15.3753 17.55 14.3C17.55 13.2247 18.4247 12.35 19.5 12.35C20.5753 12.35 21.45 13.2247 21.45 14.3C21.45 15.3753 20.5753 16.25 19.5 16.25Z" fill="#223464"/>
</svg>
