<svg width="23" height="23" viewBox="0 0 23 23" fill="none" xmlns="http://www.w3.org/2000/svg">
<path fill-rule="evenodd" clip-rule="evenodd" d="M2.57731 4.73353C2.84689 4.46395 3.21252 4.3125 3.59377 4.3125H19.4063C19.7875 4.3125 20.1532 4.46395 20.4227 4.73353C20.6923 5.00312 20.8438 5.36875 20.8438 5.75V17.25C20.8438 17.6312 20.6923 17.9969 20.4227 18.2665C20.1532 18.5361 19.7875 18.6875 19.4063 18.6875H7.46285L7.36953 18.7203L4.51021 21.119C4.30079 21.2923 4.04651 21.4026 3.77689 21.4373C3.50727 21.4719 3.23336 21.4294 2.98694 21.3146C2.74052 21.1999 2.53168 21.0176 2.38466 20.789C2.23763 20.5603 2.15845 20.2947 2.1563 20.0229L2.15625 20.0172L2.15627 5.75C2.15627 5.36875 2.30772 5.00312 2.57731 4.73353ZM19.4063 5.75L3.59377 5.75V20.0115L6.54589 17.5349C6.61218 17.4793 6.68795 17.4361 6.76958 17.4074L7.102 17.2906C7.17856 17.2637 7.25911 17.25 7.34026 17.25H19.4063V5.75Z" fill="#223464"/>
<path fill-rule="evenodd" clip-rule="evenodd" d="M7.90625 10.0625C7.90625 9.66555 8.22805 9.34375 8.625 9.34375H14.375C14.772 9.34375 15.0938 9.66555 15.0938 10.0625C15.0938 10.4595 14.772 10.7812 14.375 10.7812H8.625C8.22805 10.7812 7.90625 10.4595 7.90625 10.0625Z" fill="#223464"/>
<path fill-rule="evenodd" clip-rule="evenodd" d="M7.90625 12.9375C7.90625 12.5405 8.22805 12.2188 8.625 12.2188H14.375C14.772 12.2188 15.0938 12.5405 15.0938 12.9375C15.0938 13.3345 14.772 13.6562 14.375 13.6562H8.625C8.22805 13.6562 7.90625 13.3345 7.90625 12.9375Z" fill="#223464"/>
</svg>
