<svg width="8" height="8" viewBox="0 0 8 8" fill="none" xmlns="http://www.w3.org/2000/svg">
<path fill-rule="evenodd" clip-rule="evenodd" d="M3.36911 1.47558C3.27767 1.55474 3.16814 1.63811 3.04288 1.6902C2.91669 1.74269 2.78038 1.76057 2.66039 1.76846C2.58183 1.77362 2.49417 1.77502 2.41427 1.77629C2.37636 1.7769 2.34019 1.77747 2.30758 1.77841C2.06726 1.78532 1.94493 1.81487 1.8799 1.8799C1.81524 1.94457 1.78688 2.06325 1.78078 2.30209C1.78 2.33268 1.77953 2.36623 1.77904 2.40141C1.77791 2.48303 1.77665 2.57337 1.77105 2.65568C1.76278 2.77742 1.74387 2.91476 1.68997 3.04345C1.63663 3.1708 1.55323 3.28137 1.47318 3.37411C1.41856 3.43737 1.35556 3.50314 1.29838 3.56282C1.27405 3.58822 1.25077 3.61251 1.22965 3.63505C1.15241 3.71743 1.09273 3.78738 1.05212 3.85326C1.01252 3.91749 1 3.96376 1 4C1 4.0359 1.01266 4.08292 1.05312 4.1487C1.09438 4.21577 1.15488 4.28703 1.23236 4.37003C1.25451 4.39376 1.27908 4.41948 1.30475 4.44634C1.36107 4.5053 1.42267 4.56979 1.47558 4.63089C1.55474 4.72233 1.63811 4.83186 1.6902 4.95712C1.74269 5.08331 1.76057 5.21962 1.76846 5.33961C1.77362 5.41817 1.77502 5.50583 1.77629 5.58573C1.7769 5.62364 1.77747 5.65981 1.77841 5.69242C1.78532 5.93274 1.81487 6.05507 1.8799 6.1201C1.94457 6.18476 2.06325 6.21312 2.30209 6.21922C2.33268 6.22 2.36624 6.22047 2.40142 6.22096C2.48303 6.22209 2.57338 6.22335 2.65568 6.22895C2.77742 6.23723 2.91476 6.25613 3.04345 6.31003C3.1708 6.36337 3.28137 6.44677 3.37411 6.52682C3.43737 6.58144 3.50314 6.64444 3.56282 6.70161C3.58822 6.72595 3.61251 6.74922 3.63505 6.77035C3.71743 6.84759 3.78738 6.90727 3.85326 6.94788C3.91749 6.98748 3.96376 7 4 7C4.0359 7 4.08292 6.98734 4.1487 6.94688C4.21577 6.90562 4.28703 6.84512 4.37003 6.76764C4.39376 6.74549 4.41948 6.72092 4.44634 6.69526C4.5053 6.63894 4.56979 6.57733 4.63089 6.52442C4.72233 6.44526 4.83186 6.36189 4.95712 6.3098C5.08331 6.25731 5.21962 6.23943 5.33961 6.23154C5.41817 6.22638 5.50583 6.22498 5.58572 6.22371C5.62364 6.2231 5.6598 6.22253 5.69242 6.22159C5.93274 6.21467 6.05507 6.18513 6.1201 6.1201C6.18476 6.05543 6.21312 5.93675 6.21922 5.69791C6.22 5.66732 6.22047 5.63376 6.22096 5.59858C6.22209 5.51697 6.22335 5.42662 6.22895 5.34432C6.23723 5.22258 6.25613 5.08524 6.31003 4.95655C6.36337 4.8292 6.44677 4.71863 6.52682 4.62589C6.58144 4.56263 6.64444 4.49686 6.70161 4.43718C6.72595 4.41178 6.74922 4.38749 6.77035 4.36495C6.84759 4.28257 6.90727 4.21262 6.94788 4.14674C6.98748 4.08251 7 4.03624 7 4C7 3.9641 6.98734 3.91708 6.94688 3.8513C6.90562 3.78423 6.84512 3.71297 6.76764 3.62997C6.74549 3.60624 6.72092 3.58052 6.69526 3.55366C6.63894 3.4947 6.57733 3.43021 6.52442 3.36911C6.44526 3.27767 6.36189 3.16814 6.3098 3.04288C6.25731 2.91669 6.23943 2.78038 6.23154 2.66039C6.22638 2.58183 6.22498 2.49417 6.22371 2.41428C6.2231 2.37636 6.22253 2.3402 6.22159 2.30758C6.21467 2.06726 6.18513 1.94493 6.1201 1.8799C6.05543 1.81524 5.93675 1.78688 5.69791 1.78078C5.66732 1.78 5.63377 1.77953 5.59859 1.77904C5.51698 1.77791 5.42663 1.77665 5.34432 1.77105C5.22258 1.76278 5.08524 1.74387 4.95655 1.68997C4.8292 1.63663 4.71863 1.55323 4.62589 1.47318C4.56263 1.41856 4.49686 1.35556 4.43718 1.29838C4.41178 1.27405 4.38749 1.25077 4.36495 1.22965C4.28257 1.15241 4.21262 1.09273 4.14674 1.05212C4.08251 1.01252 4.03624 1 4 1C3.9641 1 3.91708 1.01266 3.8513 1.05312C3.78423 1.09438 3.71297 1.15488 3.62997 1.23236C3.60624 1.25451 3.58052 1.27908 3.55366 1.30475C3.4947 1.36107 3.43021 1.42267 3.36911 1.47558ZM3.58932 0.627251C3.70246 0.557653 3.84059 0.5 4 0.5C4.15908 0.5 4.2964 0.557008 4.40912 0.626493C4.5202 0.694966 4.62056 0.783915 4.70692 0.864881C4.73836 0.894357 4.76738 0.922177 4.79511 0.948771C4.84966 1.00107 4.89925 1.04862 4.95262 1.0947C5.03059 1.162 5.09424 1.20555 5.1497 1.22878C5.20382 1.25145 5.27742 1.26535 5.37824 1.27221C5.44709 1.27689 5.51384 1.27778 5.58776 1.27877C5.62634 1.27928 5.66688 1.27982 5.71068 1.28094C5.93044 1.28656 6.25082 1.30351 6.47365 1.52635C6.69612 1.74882 6.71501 2.0718 6.72138 2.2932C6.72274 2.34052 6.7234 2.3838 6.72402 2.42483C6.72509 2.49612 6.72607 2.56061 6.73047 2.6276C6.73713 2.72899 6.7505 2.8005 6.77145 2.85087C6.7928 2.90218 6.83482 2.96374 6.90243 3.04183C6.94757 3.09397 6.99394 3.14245 7.04496 3.19579C7.07279 3.22488 7.102 3.25542 7.13314 3.28878C7.21465 3.37609 7.30395 3.47749 7.37275 3.58932C7.44235 3.70246 7.5 3.84059 7.5 4C7.5 4.15908 7.44299 4.2964 7.37351 4.40912C7.30503 4.5202 7.21608 4.62056 7.13512 4.70692C7.10564 4.73836 7.07783 4.76738 7.05123 4.79511C6.99893 4.84965 6.95138 4.89925 6.9053 4.95262C6.838 5.03059 6.79445 5.09424 6.77122 5.1497C6.74855 5.20382 6.73465 5.27742 6.72779 5.37824C6.72311 5.44709 6.72222 5.51384 6.72123 5.58776C6.72072 5.62634 6.72018 5.66688 6.71906 5.71068C6.71344 5.93044 6.69649 6.25082 6.47365 6.47365C6.25118 6.69612 5.9282 6.71501 5.7068 6.72138C5.65948 6.72274 5.6162 6.7234 5.57517 6.72402C5.50388 6.72509 5.43939 6.72607 5.3724 6.73047C5.27101 6.73713 5.1995 6.7505 5.14913 6.77145C5.09782 6.7928 5.03626 6.83482 4.95817 6.90243C4.90603 6.94757 4.85755 6.99394 4.80421 7.04496C4.77512 7.07279 4.74458 7.102 4.71122 7.13314C4.62391 7.21465 4.52251 7.30395 4.41068 7.37275C4.29754 7.44235 4.15941 7.5 4 7.5C3.84092 7.5 3.7036 7.44299 3.59088 7.37351C3.47981 7.30503 3.37944 7.21608 3.29308 7.13512C3.26164 7.10564 3.23262 7.07782 3.20489 7.05123C3.15035 6.99893 3.10075 6.95138 3.04738 6.9053C2.96941 6.838 2.90576 6.79445 2.8503 6.77122C2.79618 6.74855 2.72258 6.73465 2.62176 6.72779C2.55292 6.72311 2.48616 6.72222 2.41224 6.72123C2.37366 6.72072 2.33312 6.72018 2.28932 6.71906C2.06956 6.71344 1.74918 6.69649 1.52635 6.47365C1.30388 6.25118 1.28499 5.9282 1.27862 5.7068C1.27726 5.65949 1.2766 5.6162 1.27599 5.57517C1.27491 5.50388 1.27394 5.43939 1.26953 5.3724C1.26287 5.27101 1.2495 5.1995 1.22855 5.14913C1.2072 5.09782 1.16518 5.03626 1.09757 4.95817C1.05243 4.90603 1.00606 4.85755 0.955039 4.80421C0.927211 4.77512 0.898003 4.74458 0.86686 4.71122C0.785355 4.62391 0.696046 4.52251 0.627251 4.41068C0.557653 4.29754 0.5 4.15941 0.5 4C0.5 3.84092 0.557008 3.7036 0.626493 3.59088C0.694966 3.47981 0.783915 3.37944 0.864881 3.29308C0.894357 3.26164 0.922177 3.23262 0.948771 3.20489C1.00107 3.15034 1.04862 3.10075 1.0947 3.04738C1.162 2.96941 1.20555 2.90576 1.22878 2.8503C1.25145 2.79618 1.26535 2.72258 1.27221 2.62176C1.27689 2.55291 1.27778 2.48616 1.27877 2.41224C1.27928 2.37366 1.27982 2.33312 1.28094 2.28932C1.28656 2.06956 1.30351 1.74918 1.52635 1.52635C1.74882 1.30388 2.0718 1.28499 2.2932 1.27862C2.34051 1.27726 2.3838 1.2766 2.42483 1.27599C2.49612 1.27491 2.56061 1.27394 2.6276 1.26953C2.72899 1.26287 2.8005 1.2495 2.85087 1.22855C2.90218 1.2072 2.96374 1.16518 3.04183 1.09757C3.09397 1.05243 3.14245 1.00606 3.19579 0.955039C3.22488 0.927211 3.25542 0.898003 3.28878 0.86686C3.37609 0.785355 3.47749 0.696046 3.58932 0.627251Z" fill="#E2E2E2"/>
<path d="M4 6C4.20711 6 4.375 5.83211 4.375 5.625C4.375 5.41789 4.20711 5.25 4 5.25C3.79289 5.25 3.625 5.41789 3.625 5.625C3.625 5.83211 3.79289 6 4 6Z" fill="#E2E2E2"/>
<path fill-rule="evenodd" clip-rule="evenodd" d="M3.56948 2.33564C3.77505 2.25049 4.00125 2.22821 4.21948 2.27162C4.43771 2.31503 4.63816 2.42217 4.7955 2.57951C4.95283 2.73684 5.05998 2.9373 5.10338 3.15552C5.14679 3.37375 5.12451 3.59995 5.03936 3.80552C4.95422 4.01109 4.81002 4.18679 4.62502 4.3104C4.51032 4.38704 4.38313 4.44153 4.25 4.47187V4.5C4.25 4.63807 4.13807 4.75 4 4.75C3.86193 4.75 3.75 4.63807 3.75 4.5V4.25C3.75 4.1837 3.77634 4.12011 3.82322 4.07322C3.87011 4.02634 3.9337 4 4 4C4.12361 4 4.24445 3.96334 4.34723 3.89467C4.45001 3.82599 4.53012 3.72838 4.57742 3.61418C4.62473 3.49997 4.63711 3.37431 4.61299 3.25307C4.58888 3.13183 4.52935 3.02047 4.44194 2.93306C4.35453 2.84565 4.24317 2.78613 4.12193 2.76201C4.00069 2.73789 3.87503 2.75027 3.76082 2.79758C3.64662 2.84488 3.54901 2.92499 3.48033 3.02777C3.41166 3.13055 3.375 3.25139 3.375 3.375C3.375 3.51307 3.26307 3.625 3.125 3.625C2.98693 3.625 2.875 3.51307 2.875 3.375C2.875 3.1525 2.94098 2.93499 3.0646 2.74998C3.18821 2.56498 3.36391 2.42078 3.56948 2.33564Z" fill="#E2E2E2"/>
</svg>
