<svg width="8" height="8" viewBox="0 0 8 8" fill="none" xmlns="http://www.w3.org/2000/svg">
<path fill-rule="evenodd" clip-rule="evenodd" d="M5.30329 1.22353C4.93958 1.15118 4.56258 1.18831 4.21997 1.33023C3.87736 1.47214 3.58452 1.71246 3.37849 2.02081C3.17247 2.32915 3.0625 2.69166 3.0625 3.0625V3.06338H3.0625C3.0616 3.30191 3.10747 3.5383 3.19751 3.75919C3.23311 3.84653 3.21289 3.94669 3.1462 4.01339L1.42188 5.73771V6.57813H2.125V6.10938C2.125 5.97993 2.22993 5.875 2.35938 5.875H2.82812V5.40625C2.82812 5.27681 2.93306 5.17188 3.0625 5.17188H3.66854L3.98662 4.8538L4.15234 5.01953L4.24081 4.8025C4.4617 4.89253 4.69809 4.9384 4.93662 4.9375L4.9375 4.9375C5.30834 4.9375 5.67085 4.82753 5.97919 4.62151C6.28754 4.41548 6.52786 4.12264 6.66977 3.78003C6.81169 3.43742 6.84882 3.06042 6.77647 2.69671C6.70413 2.33299 6.52555 1.9989 6.26332 1.73668C6.0011 1.47445 5.66701 1.29588 5.30329 1.22353ZM4.21219 5.29115L3.93135 5.57198C3.8874 5.61593 3.82779 5.64063 3.76562 5.64063H3.29688V6.10938C3.29688 6.23882 3.19194 6.34375 3.0625 6.34375H2.59375V6.8125C2.59375 6.94194 2.48882 7.04688 2.35938 7.04688H1.1875C1.05806 7.04688 0.953125 6.94194 0.953125 6.8125V5.64063C0.953125 5.57847 0.977818 5.51885 1.02177 5.4749L2.70886 3.78781C2.63185 3.55398 2.59287 3.30894 2.59375 3.06207C2.59384 2.59867 2.73129 2.14569 2.98874 1.76038C3.24628 1.37496 3.61232 1.07455 4.04059 0.897158C4.46885 0.719765 4.9401 0.673351 5.39474 0.763786C5.84939 0.85422 6.267 1.07744 6.59478 1.40522C6.92256 1.733 7.14578 2.15062 7.23622 2.60526C7.32665 3.0599 7.28024 3.53115 7.10284 3.95942C6.92545 4.38768 6.62505 4.75372 6.23962 5.01126C5.85431 5.26871 5.40134 5.40616 4.93794 5.40625C4.93779 5.40625 4.93765 5.40625 4.9375 5.40625V5.17188L4.93838 5.40625C4.93823 5.40625 4.93809 5.40625 4.93794 5.40625C4.69107 5.40713 4.44602 5.36816 4.21219 5.29115Z" fill="#E2E2E2"/>
<path d="M5.52344 2.82812C5.7176 2.82812 5.875 2.67073 5.875 2.47656C5.875 2.2824 5.7176 2.125 5.52344 2.125C5.32927 2.125 5.17188 2.2824 5.17188 2.47656C5.17188 2.67073 5.32927 2.82812 5.52344 2.82812Z" fill="#E2E2E2"/>
</svg>
